<svg xmlns="http://www.w3.org/2000/svg" width="825.135" height="1149.75" overflow="visible" viewBox="145.838 229.95 825.135 1149.75"><g fill="none" fill-rule="evenodd"><path fill="#fff" d="M937.748 1354.543c19.326-.933 11.553-34.738 10.166-47.153-15.301-45.344-11.704-94.816-17.722-142.344-3.75-44.368-8.566-88.598-12.618-132.932-7.958-89.994-65.105-273.198-130.32-302.661-8.215-36.046-42.146-69.694-85.076-69.694-29.28-34.66-64.523-59.052-109.726-54.127-18.68.85-36.796 20.662-54.695 24.488-10.022 1.382-98.962-2.175-116.778 8.406-12.41 6.372-23.613 18.147-19.964 33.138 5.822 18.162-12.271-1.49-50.014 17.895-76.963 46.223-30.973 108.06-28.935 109.976-48.028 66.823-90.007 121.035-109.43 202.712-12.588 60.64-11.171 123.238-21.718 184.188-3.724 21.134-9.437 41.545-15.62 62.068-6.7 26.86-9.957 93.803-13.65 94.401-6.727 1.671 3.888 15.483 11.016 15.494 197.624 32.781 398.362 1.358 597.048-3.776 55.993-1.947 112.046-2.396 168.036-.079z"/><path fill="#ce4c2a" d="M538.006 688.962c0 21.032 73.03 99.184 98.233 94.028 16.802-3.437 42.189-25.853 76.16-67.249v-26.78l-7.337-29.152c41.56 1.465 74.161 34.409 82.192 69.644 64.563 29.169 121.218 209.019 130.066 299.934l.254 2.727c4.052 44.334 8.869 88.564 12.618 132.932 6.018 47.528 2.42 97 17.722 142.344l.09.77c1.597 12.984 8.683 45.469-10.256 46.383-55.99-2.317-112.043-1.868-168.036.08-198.686 5.133-399.424 36.556-597.048 3.775-7.128-.01-17.743-13.823-11.016-15.494 3.693-.598 6.95-67.542 13.65-94.4l1.273-4.246c5.688-19.096 10.88-38.146 14.347-57.823 10.547-60.95 9.13-123.549 21.718-184.188 19.423-81.677 61.402-135.89 109.43-202.712-2.038-1.916-48.028-63.753 28.935-109.976 37.743-19.385 55.836.267 50.014-17.895-3.65-14.99 7.554-26.766 19.964-33.138 17.816-10.58 106.756-7.024 116.778-8.406 4.656-.995 9.326-3.072 14.017-5.615l-.813 2.71c-8.637 28.946-12.955 49.528-12.955 61.747z"/><path fill="#000" d="M638.22 805.433a.703.703 0 0 1 1.405 0l1.395 13.47c1.698 16.45 3.332 32.867 4.517 49.394a1276.332 1276.332 0 0 1 2.941 61.868c1.66 71.937 1.99 143.912 2.13 215.867a6166.24 6166.24 0 0 1 29.2-1.95 5255.4 5255.4 0 0 1 19.82-1.24l16.847-1.021 6.936-.426c4.687-.29 10.012-1.47 13.29 2.682 1.311 1.662 1.97 3.822.746 5.795-2.82 4.551-7.154 4.392-12.055 4.59-4.624.186-9.248.37-13.872.547-9.909.385-19.817.748-29.729 1.026-10.402.292-20.799.53-31.197.706-.105 30.377-1.362 60.715-2.72 91.058l-.616 13.655c-1.663 36.926-3.452 73.884-5.993 110.761-.209 3.02-4.48 3.013-4.687 0-2.862-41.529-4.75-83.147-6.622-124.732-1.358-30.15-2.148-60.31-2.524-90.473-1.375.01-2.749.028-4.123.033-39.027.17-78.044.34-117.07-.026a.99.99 0 0 1 .171.256c2.824 6.667 3.093 15.175 3.024 22.33-.079 8.206-1.184 16.312-3.074 24.292-6.771 28.588-24.237 54.194-44.13 75.363l-.649.69c-4.692 4.957-10.075 9.938-12.956 16.253-2.943 6.448-3.964 13.99-5.416 20.919l-.17.796-5.678 26.226c-1.804 8.33-2.316 20.48-8.91 26.49-6.152 5.607-14.302 2.678-17.197-4.542-2.26-5.635-.009-11.824 1.33-17.456l10.491-44.1c1.724-7.192 3.608-14.43 7.328-20.89 3.811-6.618 9.398-11.415 15.1-16.323 10.794-9.294 20.704-19.934 29.085-31.454 8.378-11.516 15.538-24.21 20.56-37.558 2.513-6.682 4.573-13.624 5.994-20.622 1.351-6.64 1.34-13.519 2.784-20.089.1-.454.482-.765.921-.903-.104-.293.055-.689.465-.715l31.918-2.05c28.371-1.831 56.742-3.708 85.088-5.853l5.01-.362c-.39-40.245-.06-80.498.667-120.758.666-36.919.68-73.848 1.778-110.762.546-18.32 1.723-36.599 3.033-54.882 1.34-18.698 3.485-37.238 5.413-55.88zm-299.693 214.065c-.34-2.05 2.24-3.32 3.428-1.445 13.591 21.422 20.144 44.691 22.906 69.76 2.44 22.125 1.721 44.57.506 66.752-1.296 23.66-2.808 47.314-4.337 70.961l-2.349 36.263-5.895 90.91c-.422 6.502-1.898 12.415-7.497 15.438a13.444 13.444 0 0 1-2.309 1.583c-3.025 1.617-7.037.8-8.786-2.304l.701.462c.611.384-.075-.153-2.058-1.61l-1.683-2.178c-1.223-1.838-2.004-3.645-2.318-5.83-.488-3.395.144-7.119.366-10.53l3.864-59.613c3.005-46.343 6.514-92.673 9.16-139.04 1.231-21.61 2.094-43.24 1.51-64.889-.582-21.528-1.679-43.42-5.209-64.69zm117.574-399.055.754-.127c26.995-4.484 56.35-3.645 81.02 9.368.204.107.111.446-.118.436l-7.94-.317c-25.14-.984-50.2-1.567-74.919 4.34l-2.53.609c-8.902 2.171-18.198 4.83-25.348 10.708-6.834 5.62-10.237 14.29-13.509 22.27l-.438 1.053c-3.32 7.883-7.521 15.358-14.798 20.287-9.425 6.383-20.76 5.601-31.567 6.468-19.028 1.53-34.585 15.32-42.325 32.194-4.687 10.218-6.686 21.674-7.082 32.848-.203 5.69-.232 11.6.526 17.251.242 1.807 2.476 8.39 3.615 8.232 2.531-.35 4.845.97 5.634 2.992a416.934 416.934 0 0 1 19.323-17.56c16.55-14.094 34.374-26.867 53.146-37.843 14.327-8.378 29.44-16.678 45.088-22.953a7.432 7.432 0 0 0-3.646.835c-.518.271-1.033-.379-.624-.809 4.93-5.186 10.833-5.924 16.785-4.54 1.27-.405 2.541-.796 3.817-1.167.635-.185.951.69.433 1.028l-1.462.934c6.493 2.175 12.868 6.45 17.915 9.824 14.498 9.69 27.26 21.534 40.195 33.157l2.352 2.107c11.387 10.167 23.063 20.047 36 28.203 6.772 4.27 13.885 8.218 21.346 11.155 6.4 2.521 16.818 4.108 19.815 10.871 2.664 3.236 1.551 7.366-1.569 9.544-5.262 5.791-15.788 2.05-22.058-.362-7.559-2.908-14.882-6.403-21.866-10.502-13.559-7.96-26.06-17.857-37.707-28.385-12.163-10.996-23.636-22.677-35.466-34.018-5.126-4.914-10.133-9.943-15.267-14.85l-2.578-2.442c-2.62-2.457-6.353-6.287-10.344-8.605-7.519 4.485-15.154 8.785-22.605 13.386-10.4 6.422-20.496 13.307-30.435 20.42-19.134 13.69-37.266 29.024-54.099 45.46-30.872 30.142-57.174 64.562-80.15 101.008l-1.746 2.778c-13.057 20.86-25.404 42.394-34.159 65.444-9.633 25.365-14.318 52.038-16.863 78.963-2.526 26.732-3.378 53.6-6.2 80.306-2.896 27.391-8.6 54.177-15.088 80.913l-1.547 6.339c-5.87 23.944-11.93 47.889-14.948 72.398-1.61 13.092-2.58 26.363-2.36 39.561.22 13.275 2.305 26.256 3.988 39.391.645 5.032-4.307 9.232-8.738 9.9-5.096.764-9.474-2.487-11.058-7.22-4.938-14.758-5.835-31.07-5.68-46.56.156-15.725 2.163-31.347 4.987-46.8 5.554-30.399 14.125-60.168 21.295-90.202 6.32-26.472 10.56-52.99 12.846-80.109 2.373-28.136 3.794-56.366 8.123-84.299 4.273-27.576 12.313-53.916 24.438-79.06 11.04-22.895 24.802-44.444 39.23-65.33 17.521-25.364 36.765-49.5 58.275-71.49-1.932-.084-3.916-.708-5.738-1.844-5.574-3.477-8.17-10.278-8.968-16.488-1.868-14.527-1.417-29.693 2.32-43.896 6.026-22.912 21.668-43.27 44.338-51.529 5.835-2.126 12.038-2.902 18.222-3.055 5.868-.146 12.277.62 17.94-1.24 9.011-2.963 12.874-13.577 16.258-21.623l.156-.37c4.34-10.253 9.547-19.04 18.945-25.443 10.027-6.831 22.59-9.938 34.419-11.944zm256.498 40.548c8.112-2.814 18.254-.26 26.187 2.198 8.838 2.74 17.005 7.786 24.007 13.779 7.387 6.32 13.492 14.124 17.805 22.842l.412.84c3.94 8.087 8.426 19.189 6.44 28.073a9.147 9.147 0 0 1-.196.73c16.095 7.923 30.959 17.847 43.903 30.425 15.072 14.645 27.834 31.31 38.634 49.314 42.893 71.507 50.443 157.387 55.509 238.936l1.263 20.677c2.751 44.65 5.97 89.192 14.333 133.225l.61 3.179c8.938 46.102 21.734 92.557 20.438 139.85-.39 14.17-21.331 14.075-21.938 0-2.286-52.972-14.648-104.118-23.02-156.263-14.728-91.741-7.348-186.321-28.218-277.143-8.19-35.642-20.877-70.215-38.994-102.03-8.95-15.717-19.188-30.904-31.182-44.463-10.32-11.667-21.044-22.895-33.103-32.703-3.854 3.86-11.553 1.893-13.565-3.734-1.382-3.867-.98-8.388-1.866-12.44-.823-3.758-1.958-7.485-3.47-11.025-3.014-7.055-7.438-13.83-12.545-19.54-5.517-6.172-11.858-11.3-18.953-15.534-7.144-4.263-14.957-5.536-22.491-8.651-.254-.105-.278-.445 0-.542zm31.516 490.295a.428.428 0 0 1 .72-.3c2.845 2.618 4.564 6.374 6.657 9.593a197.847 197.847 0 0 0 7.607 10.89c5.326 7.096 11.255 13.784 17.23 20.337a245.9 245.9 0 0 0 17.628 17.433c6.658 5.963 14.119 11.282 20.168 17.884 12.622 13.776 14.661 32.683 17.324 50.436l.292 1.92c1.624 10.537 3.079 21.1 4.39 31.68.639 5.146 1.275 10.297 1.795 15.456l.159 1.634c.463 5.05.588 10.175-2.312 14.588-3.105 4.72-10.164 6.376-14.361 1.849-7.211-7.777-5.86-21.591-6.797-31.596a984.021 984.021 0 0 0-2.638-24.787l-.501-4.124c-1.16-9.386-2.102-18.96-4.25-28.182-1.892-8.122-5.5-14.252-11.417-20.136-5.962-5.927-12.157-11.46-17.66-17.843-5.837-6.77-11.102-14.03-15.846-21.605-4.058-6.48-7.31-13.532-10.29-20.576l-.494-1.173c-2.88-6.87-7.63-15.811-7.404-23.378zM848.227 856.24c.063-.958 1.48-.973 1.5 0 .18 8.24.351 16.48.522 24.721 1.376 66.402.528 132.961 7.19 199.135 3.142 31.201 8.928 61.943 15.623 92.557 3.426 15.665 7.02 31.293 10.435 46.96 3.328 15.27 6.897 30.612 9.537 46.023 2.594 15.147 4.918 30.41 5.96 45.75l.13 2.002c.448 7.431 2.591 18.361-1.5 24.948-4.435 7.136-12.924 7.264-17.675.452-4.46-6.395-3.352-17.77-4.14-25.4-.8-7.773-1.648-15.552-2.61-23.307-1.877-15.127-4.35-30.22-6.922-45.244-5.357-31.288-13.127-62.182-18.862-93.42-5.878-32.009-10.056-64.247-10.232-96.837-.175-32.867 3.304-65.67 5.06-98.465 1.784-33.308 3.812-66.59 5.984-99.875zm-313.68-206.534c1.783-6.003 8.075-9.756 14.213-8.07 5.625 1.546 10.269 8.373 8.07 14.214-2.4 6.374-6.594 11.81-10.13 17.602-3.266 5.353-8.03 9.568-11.357 14.826l3.666 3.953a432.613 432.613 0 0 0 5.534 5.857l6.394 6.624c4.98 5.148 9.992 10.268 15.145 15.237 15.152 14.615 30.544 28.75 47.513 41.266 3.863 2.848 7.756 5.68 11.758 8.332l1.492.99c2.746 1.797 5.81 3.564 9.126 3.26 8.06-.74 15.342-9.3 20.88-14.627l.29-.278c13.725-13.059 26.434-27.337 37.545-42.689a308.703 308.703 0 0 0 7.182-10.39c-5.372-6.275-4.09-18.524-4.385-26.134-.21-5.35-.225-10.703-.254-16.058l-.015-1.08c-.065-3.465-.221-6.79 2.028-9.642.13-.165.402-.16.569-.073 3.08 1.615 4.03 4.318 5.344 7.35l.138.314c1.6 3.64 3.132 7.312 4.682 10.972 1.623 3.832 3.11 7.72 4.619 11.598a224.502 224.502 0 0 1 2.027 5.436c.399 1.163.812 2.32 1.236 3.475l.1.09c.56.474 1.035.976 1.444 1.494 1.719.86 3.085 2.427 3.726 4.73 1.395 5.01-1.492 9.096-4.067 13.073-10.46 16.16-22.384 31.56-35.638 45.528a303.62 303.62 0 0 1-20.72 19.855l-1.26 1.092c-6.476 5.566-13.508 10.838-22.158 12.14-10.123 1.524-18.361-3.51-26.11-9.31l-.773-.582c-7.346-5.56-14.544-11.317-21.518-17.338-14.22-12.276-27.746-25.457-39.751-39.918-11.678-14.066-23.221-29.794-30.42-46.719-.438-1.03.716-2.11 1.62-1.249 3.516 3.347 6.899 6.876 10.242 10.45.093-5.26-.878-10.567-.338-15.86.659-6.436.469-13.545 2.31-19.74z"/><path fill="#fff" d="M616.285 238.706c44.677 0 98.281 21.705 102.839 22.139l.123.006c2.398 0 11.767 7.154 28.108 21.46l-17.7 34.594 1.433 1.37c6.854 6.586 12.706 12.588 17.324 17.32 37.712 38.634 44.49 190.324 35.603 243.223-8.887 52.9-25.349 104.662-101.985 104.662-76.637 0-161.897-46.177-175.03-60.558-8.756-9.586-18.591-14.18-29.506-13.778-.448-.567-.893-1.133-1.334-1.697l-1.606-.228c-15.105-2.192-25.929-5.143-32.47-8.851-12.776-7.244-26.818-45.323-26.818-53.711 0-8.305-20.969-68.717-21.388-75.11l-.006-.177c0-5.345-27.394-29.912-27.394-37.714s-5.521-7.33 0-34.823l1.605-8.077c5.875-29.272 17.376-77.743 61.225-98.806 48.186-23.145 141.848-51.244 186.977-51.244z"/><path fill="#fff" d="M616.277 239c44.677 0 98.282 21.705 102.84 22.139l.122.006c2.398 0 11.767 7.153 28.109 21.46l-3.973 7.759c-87.965 1.731-148.51 8.896-181.633 21.493-38.402 14.605-62.509 70.09-72.32 166.456-13.417 6.367-26.834 14.748-40.251 25.143-13.417 10.394-16.813 15.763-10.189 16.106-.577 22.275 1.202 37.831 5.336 46.667 4.135 8.836 18.446 14.036 42.934 15.6l6.22 20.877-.86 9.675c-4.787-2.157-9.83-3.138-15.125-2.943-.449-.568-.894-1.133-1.335-1.697l-1.606-.228c-15.105-2.192-25.928-5.143-32.47-8.851-12.775-7.244-26.818-45.323-26.818-53.711 0-8.305-20.968-68.717-21.388-75.11l-.006-.177c0-5.345-27.393-29.912-27.393-37.714 0-7.803-5.522-7.33 0-34.823l1.604-8.077c5.876-29.272 17.376-77.744 61.226-98.806C477.487 267.1 571.149 239 616.277 239z"/><path fill="#000" d="M421.87 288.863c24.032-25.562 160.466-65.1 229.491-56.719l2.07.269c5.51.7 10.938 1.76 16.295 3.2 17.318 4.053 35.206 10.19 49.515 20.441 11.946 8.386 49.629 22.081 38.522 44.019 4.119 7.819 5.655 17.479 2.872 25.18-.35 2.66-1.168 5.11-2.215 7.65 8.798 13.011 15.765 27.725 21.404 41.72 9.854 35.221 15.986 71.875 16.884 107.81 2.988 68.272-4.483 149.823-63.82 193.971-35.844 27.975-91.994 28.915-132.275-5.771-2.287-2.711-13.037-10.027-9.45-11.31a102.58 102.58 0 0 0 3.284 3.31.65.65 0 0 1-.04-.37l-1.052-.954c-1.979-1.835-4.544-4.497-1.623-3.976.13.15.27.28.408.43.62.372 1.086.694 1.45.979l.187.15-.058-.06c-1.682-1.799-2.69-3.632-.175-2.461l.333.162a92.267 92.267 0 0 0 3.413 3.41.65.65 0 0 1 .07-.4l-1.079-1.045c-1.053-1.034-.893-1.039-.377-1.875-2.24-3.145 1.94-1.277 2.234-.05 2.615-.62 4.911 4.3 6.596 4.9 73.843 56.89 181.003 6.411 179.268-152.114l-.027-3.102c-.507-50.69-4.764-102.788-25.686-148.674a131.89 131.89 0 0 0-6.814-12.88 124.798 124.798 0 0 0-5.559-9.12 82.199 82.199 0 0 1-16.455-3.05 78.56 78.56 0 0 1-5.528-1.6c-26.823 1.466-53.049 3.061-79.947 4.573l-8.402.524c-22.786 1.468-46.35 3.82-64.738 17.943-18.042 12.858-18.124 38.213-33.569 52.33-22.023 14.979-22.184 28.486-26.425 50.56.315 16.64 11.828 40.817-9.3 47.82 3.564 5.093-1.404 2.646-1.795.86-.04.01-.08.02-.11.02 3.176 5.917-1.493 2.191-1.906.29-.25-.07-.499-.25-.748-.5 3.2 5.184-1.973 1.554-1.667.61-6.184-9.525-18.91-11.004-27.882-8.48-.11.34-.508.37-.757.19-38.147 8.284-28.304 87.42 10.787 79.77 1.673-.342 1.633.463 1.966.54-.903-2.376 1.642-1.409 1.615-.91l.155-.008c.123-.01.073-.024.165.008-.873-4.859 4.04 2.181 3.652 2.47.15-.09.32-.14.47-.16l-.17-.461c-.815-2.177-.745-1.272-.74-2.519-.612-1.541-.657-.867-.513-1.871 2.153-1.672 2.79 3.4 3.508 3.771-1.232-1.72-.253-3.125.909-2.191 8.804 18.558 20.177 35.995 34.875 49.731 1.607 1.27 3.234 2.52 4.92 3.7 6.251 5.457 15.841 8.966 21.694 13.8 0 .08-.04.18-.1.28l.135.121.135.129 2.036.98c.599.51 1.138 1.08 1.616 1.71.51.59.958 1.24 1.338 1.93.19.84-.23 1.19-1.028.83-.35-.12-.699-.26-1.048-.39.02.03.029.05.05.07.115.174.89 1.974-.004 1.681l-.106-.041c-.49-.18-.978-.38-1.457-.57.57.71 1.087 1.48 1.546 2.13.49.51.788 1.11.91 1.79-.022.38-.23.54-.61.49-.578-.19-1.147-.39-1.717-.6l.162.31c.403.793.975 2.124-.041 1.68a31.98 31.98 0 0 1-2.545-.92c-.07.14-.21.19-.489.06a51.32 51.32 0 0 1-7.704-3.48c-2.165-1.58-4.351-3.13-6.526-4.7a50.104 50.104 0 0 1-5.907-4.14 128.768 128.768 0 0 1-32.432-30.1c-14.658 12.721-43.965.568-62.093-9.39-16.035-8.9-22.338-25.356-23.968-43.098-3.388-23.886-22.866-32.062-21.511-84.472a.315.315 0 0 1-.101.01 10.15 10.15 0 0 1-2.045-.85c-.668-.32-1.297-.7-1.887-1.16l-.728-1.01a6.185 6.185 0 0 1-.977-.65l-.135.174c-.426.515-.14-.26-.115-.414l-1.265-1.725c-3-4.105-6.292-8.711-8.974-12.395l-.084.15c-.061.113-.093.194-.065.23-6.381-9.188-12.382-20.286-14.05-31.03-1.969-8.276-1.2-16.804.518-24.47 7.363-26.845 31.484-87.593 63.156-113.63zm173.182 371.253-.4-.357.352.442c.184.228.373.433.68.642a.555.555 0 0 1-.011-.22 13.385 13.385 0 0 1-.62-.507zm56.004-414.483c-46.81-4.033-92.849 6.301-137.516 18.81l-3.082.888c-25.398 7.262-52.254 13.797-73.718 29.342-29.988 23.017-45.473 59.633-58.986 93.44-11.8 25.118-5.768 53.441 12.014 70.98 1.85-17.429 5.005-34.348 9.934-51.131 1.03-2.622.25-3.481 2.468-3.823 3.349 45.228-13.145 78.644 19.496 132.246 14.163 25.292-2.232 43.798 37.763 57.107l1.082.414c8.333 3.151 17.433 5.638 25.594 3.877l-.731-1.192c-.746-1.227-.972-1.823.112-2.348-.029-.06-.069-.12-.11-.19-.877-1.66-1.725-3.34-2.534-5.04-.329.11-.658.19-.998.28.22.41.25.82-.369.96a17.357 17.357 0 0 1-6.768.917l-.496-.037c-2.612-.16-4.257-.637-5.73-1.08-.487-.08-.976-.16-1.456-.26-4.735-1.052-9.747-3.728-12.992-6.38-36.98-21.048-33.157-92.697 12.424-99.47.935-45.112 22.347-121.22 57.882-164.207 32.12-39.541 119.809-56.679 180.816-50.636.889.295 1.778.593 2.667.894 9.412.838 18.382 5.04 27.801 6.992-6.763-5.079-14.434-8.462-22.337-11.337-15.744-9.651-33.794-14.873-51.232-18.556a50.338 50.338 0 0 0-10.998-1.46zM464.37 520.183c2.45-1.334 2.17-.046 2.734-.42 17.629-1.441 36.638 14.026 46.492 26.92-.779.81-2.884-1.59-3.253-1.97a.45.45 0 0 1-.17.11l.274.388c3.994 5.744-3.923-1.015-4.665-2.408-.13.07-.26.11-.409.08.628.617 2.545 2.226 2.874 3.37l.508.424c4.793 4.112 4.395 7.206-1.046 1.366.129.27.179.52.09.72l.186.125c2.676 1.874 4.876 7.096-.716 1.735.582 3.916-5.541-3.653-5.738-3.6-10.595-8.335-26.195-16.441-39.486-17.53l-.458-.053c-2.439-.314-3.592-1.039-2.735-2.637-3.004-.716-2.3-2.198-.879-2.15-2.118-1.396-.211-2.731 1.018-2.21-.845-2.345 2.545-.783 2.854-1.11 1.76-2.72 2.234-.451 2.525-1.15zm-36.952-145.35c8.467-3.108 33.477 6.196 31.477 18.518-1.192 2.829-5.118 4.45-7.877 2.853l-3.601-2.424c-6.267-4.206-11.92-7.894-18.648-11.562-3.662-1.821-5.239-5.687-1.35-7.385zm48.173-18.311-3.27-2.133c-17.646-11.573-42.593-29.11 1.649-10.966 5.042 2.167 11.742 3.449 14.493 8.26 4.322 8.87-7.052 9.466-12.872 4.839zm1.983-51.93c-1.416-5.384 16.204.935 21.333 2.6l.781.296c4.99 1.863 10.71 3.592 13.693 7.907 3.497 5.962-3.58 7.197-7.964 4.504-8.988-5.886-18.842-10.327-27.843-15.306zm44.806-25.084c-9.918-10.854 16.625-.456 20.6 2.43l.114.085c2.967 2.093 2.365 6.6-.422 7.925-7.93.15-13.766-6.473-20.292-10.44zm45.13-11.891c-15.766-11.355 5.003-5.954 12.217-1.504 4.916 4.345-.148 11.68-12.217 1.504z"/><path fill="#000" d="M677.587 606.927c-6.723-2.743-12.72-7.317-17.106-13.16-1.524-2.032-1.92-4.177-1.6-6.14.36-2.206 1.665-4.205 3.445-5.546 1.786-1.346 4.019-2.01 6.178-1.67 1.877.293 3.744 1.32 5.223 3.45l.308.427c2.607 3.527 6.005 6.42 9.875 8.286 3.731 1.798 7.904 2.637 12.222 2.149 8.224-.93 13.892-5.377 19.917-11.416a157.72 157.72 0 0 0 2.245-2.348 3.53 3.53 0 0 1 1.863-1.435 4.008 4.008 0 0 1 2.57.038c.81.283 1.535.819 2.02 1.533.462.678.724 1.515.64 2.48-.552 6.258-3.825 11.844-8.473 16.23-5.162 4.872-12.005 8.242-18.448 9.424-7.098 1.302-14.33.37-20.88-2.302zm24.227-96.56c7.552 4.59 19.058 15.293 10.934 26.673-9.562 10.033-23.33-1.471-30.114-6.674-6.29-4.032-13.359 6.339-7.522 11.047 49.024 36.295 68.919-29.846 30.522-36.443-4.228-.727-5.798 3.977-3.82 5.397zm-87.85-42.22c.834-10.357 16.606-12.709 18.175-2.46 1.405 9.18-.249 17.612-4.384 25.877-3.95 7.896-13.881 4.213-14.632-2.977-1.007-9.638.321-13.998.84-20.44zm120.063-4.585c2.199-2.88 5.374-4.846 9.178-3.735 11.885 3.473 8.382 20.346 4.208 28.559-2.268 4.46-9.599 5.59-12.912 1.663-5.4-6.404-7.986-19.193-1.121-25.5.186-.326.393-.655.647-.987zm-106.44-40.731 1.878-.33c5.808-1.004 13.03-1.969 17.138 2.7 2.179 2.476 2.929 7.078 0 9.448-5.152 4.17-10.848 2.554-17.022 2.907a67.731 67.731 0 0 0-14.88 2.535c-10.751 3.073-19.512 8.683-28.695 14.843-1.205.808-2.435-.733-1.86-1.86 5.3-10.383 15.574-18.912 25.864-24.11 5.492-2.775 11.502-5.077 17.578-6.133zm95.606-4.652 1.437.294c15.637 3.27 35.953 9.798 43.358 25.158.283 2.172-.016 2.637-.258 2.941l-.08.102c-.2.26-.36.617-1.301.913a36.426 36.426 0 0 1-.792-.198c-3.394-.89-6.08-2.115-8.68-3.387l-2.819-1.389c-3.27-1.603-6.57-3.148-10.066-4.29-7.462-2.433-15.138-4.148-22.932-5.063-1.69-.198-3.316-.769-4.6-1.746a6.91 6.91 0 0 1-2.573-3.918c-.55-2.21-.392-3.882.794-5.875a7.443 7.443 0 0 1 3.63-3.13c1.493-.607 3.193-.75 4.882-.412z"/><path fill="#000" d="M753.53 555.24c-9.051-4.232-18.78-6.75-28.773-7.644-4.322-.387-12.812-1.608-17.41 1.211-2.15 1.32-3.966 3.164-5.407 5.416-.562-.777-1.302-1.439-1.77-2.279-2.517-4.522-17.965-4.616-22.63-4.232-11.06.91-21.824 3.507-31.962 7.873-18.201 7.84-33.491 24.13-28.683 44.81.68 2.928 3.96 4.067 6.664 3.561l54.658-10.246 12.688-2.378c3.825-.717 8.513-.944 12.143-2.594 1.46.624 3.086 1.02 4.822 1.364 21.92 4.354 43.87 8.578 65.805 12.867 2.63.515 6.08-.819 6.552-3.733 3.148-19.444-9.235-35.832-26.697-43.996"/></g></svg>